<svg xmlns="http://www.w3.org/2000/svg" viewBox="0 0 640 260" font-family="sans-serif">
<rect width="640" height="260" fill="white"/>
<text x="50" y="14" font-size="12" font-weight="bold" fill="#222">Western region weekly receivals — 2024/25 (HELD OUT)</text>
<text x="630" y="14" font-size="10" text-anchor="end"><tspan fill="#2c7a4b" font-weight="bold">sim</tspan> <tspan fill="#b8860b" font-weight="bold">observed</tspan> (weekly tonnes)</text>
<line x1="50" x2="630" y1="171" y2="171" stroke="#ddd"/><text x="46" y="174" font-size="9" text-anchor="end" fill="#555">85k</text><line x1="50" x2="630" y1="122" y2="122" stroke="#ddd"/><text x="46" y="125" font-size="9" text-anchor="end" fill="#555">169k</text><line x1="50" x2="630" y1="73" y2="73" stroke="#ddd"/><text x="46" y="76" font-size="9" text-anchor="end" fill="#555">254k</text><line x1="50" x2="630" y1="24" y2="24" stroke="#ddd"/><text x="46" y="27" font-size="9" text-anchor="end" fill="#555">339k</text><path d="M50.0,219.9L108.0,219.3L166.0,214.5L224.0,173.5L282.0,72.8L340.0,64.5L398.0,41.8L456.0,170.5L514.0,109.5L572.0,96.3L630.0,165.5" fill="none" stroke="#b8860b" stroke-width="2.5" stroke-dasharray="5 3"/><path d="M50.0,216.2L108.0,206.4L166.0,185.9L224.0,158.0L282.0,122.9L340.0,123.7L398.0,107.7L456.0,64.3L514.0,164.8L572.0,73.5L630.0,220.0" fill="none" stroke="#2c7a4b" stroke-width="2.5" /><text x="50" y="238" font-size="9" text-anchor="middle" fill="#555" transform="rotate(35 50 238)">10-13</text><text x="166" y="238" font-size="9" text-anchor="middle" fill="#555" transform="rotate(35 166 238)">10-27</text><text x="282" y="238" font-size="9" text-anchor="middle" fill="#555" transform="rotate(35 282 238)">11-10</text><text x="398" y="238" font-size="9" text-anchor="middle" fill="#555" transform="rotate(35 398 238)">11-24</text><text x="514" y="238" font-size="9" text-anchor="middle" fill="#555" transform="rotate(35 514 238)">12-08</text><text x="630" y="238" font-size="9" text-anchor="middle" fill="#555" transform="rotate(35 630 238)">01-05</text></svg>